<?xml version="1.0" encoding="UTF-8"?>
<!DOCTYPE svg PUBLIC "-//W3C//DTD SVG 1.1//EN" "http://www.w3.org/Graphics/SVG/1.1/DTD/svg11.dtd">
<!-- Creator: CorelDRAW 2017 -->
<svg xmlns="http://www.w3.org/2000/svg" xml:space="preserve" width="17.4261mm" height="15.777mm" version="1.1" style="shape-rendering:geometricPrecision; text-rendering:geometricPrecision; image-rendering:optimizeQuality; fill-rule:evenodd; clip-rule:evenodd"
viewBox="0 0 49983 45253"
 xmlns:xlink="http://www.w3.org/1999/xlink">
 <defs>
  <style type="text/css">
   <![CDATA[
    .fil4 {fill:#8DA826}
    .fil3 {fill:white}
    .fil1 {fill:#8DA826;fill-rule:nonzero}
    .fil2 {fill:white;fill-rule:nonzero}
    .fil0 {fill:url(#id0)}
   ]]>
  </style>
  <linearGradient id="id0" gradientUnits="userSpaceOnUse" x1="5752" y1="8198" x2="37111" y2="31470">
   <stop offset="0" style="stop-opacity:1; stop-color:#8DA826"/>
   <stop offset="0.639216" style="stop-opacity:1; stop-color:#A3C626"/>
   <stop offset="1" style="stop-opacity:1; stop-color:#A3C626"/>
  </linearGradient>
 </defs>
 <g id="Warstwa_x0020_1">
  <metadata id="CorelCorpID_0Corel-Layer"/>
  <path class="fil0" d="M8686 12770l12838 -12532 13156 12539 -3447 -153 48 8225 9637 -89 0 9528 -14119 -93c-357,0 -702,74 -1021,206 -330,137 -625,335 -867,578 -243,243 -441,538 -578,867 -133,318 -206,664 -206,1021l0 6563 -22182 0 0 -18442 9934 -90 0 -8128 -3193 0z"/>
  <path class="fil1" d="M42868 20564c200,-1 364,161 364,361 1,200 -161,364 -361,364l-11588 48c-200,1 -364,-161 -364,-361l-48 -8225c-1,-200 161,-364 361,-364l2440 -1 -11923 -11518 -12158 11663 2289 0c201,0 364,163 364,364l-1 8128c0,200 -163,363 -363,363l-11519 -94c-200,-1 -361,-165 -360,-366 1,-200 165,-361 366,-360l11150 91 0 -7398 -2830 0c-95,-1 -191,-38 -262,-112 -139,-145 -135,-375 10,-514l13064 -12532c140,-135 363,-135 504,0l12804 12369c80,67 131,167 131,279 0,201 -163,364 -364,364l-2974 0 44 7497 11226 -46z"/>
  <path class="fil1" d="M24177 38707c200,0 363,163 363,363 0,200 -163,363 -363,363l-22071 49c-200,0 -363,-163 -363,-363l49 -17564c0,-200 163,-363 363,-363 200,0 363,163 363,363l-48 17200 21707 -48z"/>
  <path class="fil2" d="M5662 26236c1,-200 164,-362 364,-361 200,1 362,164 361,364l-24 5854c-1,200 -164,362 -364,361 -200,-1 -362,-164 -361,-364l24 -5854z"/>
  <path class="fil2" d="M21845 11333c1309,0 2496,531 3354,1389l19 21c847,857 1370,2034 1370,3333 0,1308 -531,2493 -1389,3352l-9 9c-858,854 -2040,1382 -3345,1382 -1309,0 -2494,-531 -3352,-1389 -859,-858 -1391,-2044 -1391,-3354 0,-1309 531,-2494 1389,-3352l8 -7c858,-854 2041,-1383 3346,-1383zm2838 1904c-726,-726 -1730,-1176 -2838,-1176 -1109,0 -2113,450 -2839,1175 -725,726 -1175,1730 -1175,2839 0,1108 449,2112 1176,2838 725,726 1730,1176 2839,1176 1109,0 2113,-449 2838,-1174 727,-727 1176,-1730 1176,-2840 0,-1100 -443,-2097 -1158,-2822l-18 -17z"/>
  <path class="fil2" d="M21457 13708c-1,-200 160,-364 360,-366 200,-1 364,160 366,360l23 2199 1537 1248c155,126 179,355 52,511 -126,155 -355,179 -511,52l-1669 -1355c-81,-66 -133,-166 -134,-279l-25 -2371z"/>
  <path class="fil2" d="M23999 27603c-303,-315 -669,-570 -1076,-743 -390,-166 -821,-259 -1273,-259l-9 0c-893,1 -1708,369 -2299,959 -589,589 -956,1402 -956,2295l23 9094 -726 0 -26 -9094c0,-1093 449,-2088 1172,-2811 721,-720 1717,-1169 2811,-1171l9 -1c550,0 1077,114 1557,319 498,213 945,524 1315,908l-523 504z"/>
  <path class="fil2" d="M11960 26236c1,-200 164,-362 364,-361 200,1 362,164 361,364l-24 5854c-1,200 -164,362 -364,361 -200,-1 -362,-164 -361,-364l24 -5854z"/>
  <path class="fil3" d="M26799 31653l18699 0c668,0 1214,546 1214,1214l0 10928c0,668 -546,1214 -1214,1214l-18699 0c-668,0 -1214,-546 -1214,-1214l0 -10928c0,-668 546,-1214 1214,-1214z"/>
  <path class="fil1" d="M40655 30287l-108 -9349c-1,-200 160,-364 360,-366 200,-1 364,160 366,360l108 9360 -726 -5z"/>
  <path class="fil1" d="M46470 34480c0,-134 109,-243 243,-243 134,0 243,109 243,243l0 9316c0,400 -164,764 -428,1028 -265,265 -629,429 -1029,429l-18699 0c-400,0 -765,-164 -1029,-428 -265,-264 -429,-628 -429,-1029l0 -10928c0,-401 164,-766 428,-1029 264,-264 629,-428 1030,-428l14937 0c134,0 243,109 243,243 0,134 -109,243 -243,243l-14937 0c-267,0 -510,110 -686,285 -176,176 -285,419 -285,686l0 10928c0,267 110,510 285,686 176,176 419,285 686,285l18699 0c267,0 510,-109 686,-284 177,-177 285,-420 285,-687l0 -9316z"/>
  <path class="fil4" d="M30484 34754c852,0 1544,691 1544,1544 0,853 -691,1544 -1544,1544 -853,0 -1544,-691 -1544,-1544 0,-852 691,-1544 1544,-1544zm15215 -679c-124,-87 -201,-227 -208,-379 -126,-1041 -1072,-1784 -2114,-1658 -65,8 -129,19 -193,33 -260,78 -533,-70 -610,-329 -77,-256 65,-525 319,-607 1538,-396 3105,530 3500,2068 38,149 64,300 78,453 10,270 -200,499 -471,509 -108,4 -213,-27 -301,-89zm1823 -316c-120,-84 -196,-217 -207,-363 -154,-1017 -727,-1922 -1580,-2495 -828,-610 -1874,-845 -2883,-647 -264,63 -528,-100 -591,-364 -59,-251 85,-505 332,-582 1292,-274 2639,13 3706,790 1091,743 1816,1915 1993,3223 20,270 -184,505 -454,525 -113,8 -225,-23 -317,-88zm1689 -410c-120,-84 -196,-218 -207,-364 -7,-91 -194,-2118 -2233,-3554 -2041,-1438 -4015,-928 -4099,-905 -261,72 -531,-81 -603,-342 -72,-261 81,-531 342,-603 101,-28 2491,-666 4925,1049 2434,1715 2639,4180 2647,4284 20,270 -184,505 -454,525 -113,8 -225,-23 -318,-88zm-13521 3181l8532 0c200,0 364,164 364,364l0 1c0,200 -164,364 -364,364l-8532 0c-200,0 -364,-164 -364,-364l0 -1c0,-200 164,-364 364,-364zm-3746 1713c986,53 1775,876 1775,1874l0 541c0,688 -563,1251 -1251,1251l-3639 0c-688,0 -1251,-563 -1251,-1251l0 -541c0,-953 720,-1746 1643,-1862 340,331 821,538 1356,538 541,0 1027,-212 1368,-550zm3746 1164l5059 0c200,0 364,164 364,364l0 1c0,200 -164,364 -364,364l-5059 0c-200,0 -364,-164 -364,-364l0 -1c0,-200 164,-364 364,-364z"/>
 </g>
</svg>
