<?xml version="1.0" encoding="UTF-8"?>
<!DOCTYPE svg PUBLIC "-//W3C//DTD SVG 1.1//EN" "http://www.w3.org/Graphics/SVG/1.1/DTD/svg11.dtd">
<!-- Creator: CorelDRAW 2017 -->
<svg xmlns="http://www.w3.org/2000/svg" xml:space="preserve" width="17.5342mm" height="19.2721mm" version="1.1" style="shape-rendering:geometricPrecision; text-rendering:geometricPrecision; image-rendering:optimizeQuality; fill-rule:evenodd; clip-rule:evenodd"
viewBox="0 0 58627 64438"
 xmlns:xlink="http://www.w3.org/1999/xlink">
 <defs>
  <style type="text/css">
   <![CDATA[
    .str0 {stroke:#3CAB3D;stroke-width:848.935}
    .fil1 {fill:#8DA826}
    .fil0 {fill:white}
    .fil2 {fill:#8DA826;fill-rule:nonzero}
    .fil4 {fill:white;fill-rule:nonzero}
    .fil3 {fill:url(#id0)}
    .fil5 {fill:url(#id1)}
   ]]>
  </style>
  <linearGradient id="id0" gradientUnits="userSpaceOnUse" x1="6706" y1="19865" x2="43261" y2="46993">
   <stop offset="0" style="stop-opacity:1; stop-color:#8DA826"/>
   <stop offset="0.639216" style="stop-opacity:1; stop-color:#A3C626"/>
   <stop offset="1" style="stop-opacity:1; stop-color:#A3C626"/>
  </linearGradient>
  <linearGradient id="id1" gradientUnits="userSpaceOnUse" xlink:href="#id0" x1="48471" y1="2486" x2="57255" y2="9042">
  </linearGradient>
 </defs>
 <g id="Warstwa_x0020_1">
  <metadata id="CorelCorpID_0Corel-Layer"/>
  <path class="fil0 str0" d="M36700 38306l18471 0c461,0 837,376 837,837l0 24034c0,460 -376,837 -837,837l-18471 0c-460,0 -837,-376 -837,-837l0 -24034c0,-460 377,-837 837,-837z"/>
  <path class="fil1" d="M46001 44688l6947 0c266,0 483,217 483,484l0 0c0,266 -217,483 -483,483l-6947 0c-266,0 -484,-217 -484,-483l0 0c0,-266 218,-484 484,-484zm0 12383l6947 0c266,0 483,217 483,484l0 0c0,266 -217,483 -483,483l-6947 0c-266,0 -484,-217 -484,-483l0 0c0,-266 218,-484 484,-484zm0 -6192l6947 0c266,0 483,217 483,484l0 0c0,266 -217,483 -483,483l-6947 0c-266,0 -484,-217 -484,-483l0 0c0,-266 218,-484 484,-484z"/>
  <path class="fil2" d="M38996 45304c-144,-184 -111,-450 73,-594 184,-144 450,-111 594,73l892 1140 1764 -2506c134,-191 399,-237 590,-103 191,134 237,399 103,590l-2093 2972c-24,33 -52,63 -86,90 -184,144 -450,111 -594,-73l-1243 -1590z"/>
  <path class="fil2" d="M38996 51496c-144,-184 -111,-450 73,-594 184,-144 450,-111 594,73l892 1140 1764 -2506c134,-191 399,-237 590,-103 191,134 237,399 103,590l-2093 2972c-24,33 -52,63 -86,90 -184,144 -450,111 -594,-73l-1243 -1590z"/>
  <path class="fil2" d="M38996 57687c-144,-184 -111,-450 73,-594 184,-144 450,-111 594,73l892 1140 1764 -2505c134,-191 399,-237 590,-103 191,134 237,399 103,590l-2093 2971c-24,33 -52,63 -86,90 -184,144 -450,111 -594,-73l-1243 -1590z"/>
  <path class="fil3" d="M10125 25194l14966 -14608 15336 14617 -4018 -178 56 9588 11234 -104 0 2240 -10999 0c-326,0 -641,70 -928,199 -286,126 -545,312 -764,540 -217,229 -390,497 -505,788 -112,285 -174,594 -174,914l0 17082 -32061 0 0 -21498 11580 -105 0 -9475 -3722 0z"/>
  <path class="fil2" d="M48137 36745l0 3 -846 0 -25 -2178c-2,-233 186,-425 420,-426 233,-2 425,186 426,420l25 2181z"/>
  <path class="fil2" d="M49971 34135c233,-1 424,188 425,421 1,233 -188,424 -421,425l-13508 56c-233,1 -424,-188 -425,-421l-56 -9588c-1,-233 188,-424 421,-425l2844 -2 -13899 -13426 -14173 13596 2668 0c234,0 425,190 425,425l-1 9475c0,233 -190,423 -423,423l-13428 -109c-233,-2 -421,-193 -420,-426 2,-233 193,-421 426,-420l12998 106 0 -8624 -3299 0c-111,-1 -222,-44 -305,-131 -162,-169 -157,-437 12,-599l15228 -14608c163,-157 423,-158 587,0l14925 14419c93,78 152,195 152,326 0,234 -190,425 -425,425l-3466 0 51 8739 13086 -54z"/>
  <path class="fil2" d="M28183 55284c233,0 423,190 423,423 0,233 -190,423 -423,423l-25729 57c-233,0 -423,-190 -423,-423l57 -20474c0,-233 190,-423 423,-423 233,0 423,190 423,423l-56 20050 25305 -56z"/>
  <path class="fil4" d="M6600 40746c1,-233 191,-422 425,-421 233,1 422,191 421,425l-28 6825c-1,233 -191,422 -425,421 -233,-1 -422,-191 -421,-425l28 -6825z"/>
  <path class="fil4" d="M25464 23374c1526,0 2909,619 3909,1619l22 24c987,999 1597,2371 1597,3886 0,1525 -619,2907 -1619,3908l-10 10c-1000,996 -2378,1611 -3899,1611 -1526,0 -2908,-619 -3908,-1619 -1002,-1000 -1621,-2383 -1621,-3909 0,-1525 619,-2908 1619,-3908l9 -9c1000,-996 2379,-1612 3901,-1612zm3309 2220c-847,-847 -2017,-1371 -3309,-1371 -1293,0 -2464,524 -3310,1370 -846,846 -1370,2017 -1370,3310 0,1292 524,2462 1371,3309 846,846 2016,1371 3309,1371 1293,0 2464,-523 3309,-1369 847,-847 1371,-2017 1371,-3310 0,-1283 -516,-2445 -1350,-3290l-21 -19z"/>
  <path class="fil4" d="M25013 26142c-2,-233 186,-425 420,-426 233,-2 425,186 426,420l27 2563 1792 1455c181,147 209,414 61,595 -147,181 -414,209 -595,61l-1946 -1580c-94,-77 -155,-194 -156,-325l-29 -2763z"/>
  <path class="fil4" d="M27976 42340c-354,-367 -780,-664 -1255,-867 -454,-194 -957,-302 -1484,-302l-11 0c-1041,1 -1991,430 -2680,1118 -687,686 -1114,1634 -1114,2676l26 10601 -846 0 -30 -10601c0,-1275 524,-2434 1366,-3276 840,-839 2001,-1362 3277,-1365l11 -2c641,0 1256,133 1816,372 580,248 1101,611 1533,1059l-610 587z"/>
  <path class="fil4" d="M13942 40746c1,-233 191,-422 425,-421 233,1 422,191 421,425l-28 6825c-1,233 -191,422 -425,421 -233,-1 -422,-191 -421,-425l28 -6825z"/>
  <path class="fil2" d="M36700 37881l18471 0c340,0 649,148 874,384 225,236 365,565 365,925l0 23939c0,360 -140,688 -363,925 -226,236 -535,384 -875,384l-18471 0c-340,0 -649,-147 -874,-384 -226,-239 -365,-566 -365,-925l0 -23939c0,-359 139,-686 364,-924 223,-237 533,-385 874,-385zm18471 849l-18471 0c-119,0 -228,52 -307,135 -80,82 -128,198 -128,324l0 23939c0,127 48,242 127,324 80,84 188,135 309,135l18471 0c120,0 229,-51 308,-134 78,-84 127,-200 127,-325l0 -23939c0,-126 -49,-241 -128,-324 -78,-84 -187,-135 -307,-135z"/>
  <g id="_1265184281600">
   <path class="fil5" d="M52863 283c3027,0 5480,2454 5480,5480 0,3027 -2454,5481 -5480,5481 -3027,0 -5481,-2454 -5481,-5481 0,-3027 2454,-5480 5481,-5480zm3509 5009c-19,-91 -86,-165 -175,-193 -138,-44 -276,-88 -414,-132 -68,-249 -167,-486 -293,-705 67,-129 133,-257 200,-387 43,-84 37,-184 -15,-262 -77,-115 -178,-229 -306,-357 -129,-128 -243,-230 -360,-307 -78,-51 -177,-57 -260,-13 -129,67 -257,133 -387,200 -219,-126 -456,-225 -705,-293 -44,-138 -88,-276 -132,-414 -29,-90 -104,-156 -196,-175 -136,-27 -289,-36 -469,-36 -182,0 -335,9 -472,37 -91,19 -165,86 -193,175 -44,138 -88,276 -132,414 -249,68 -486,167 -705,293 -129,-67 -257,-133 -387,-200 -84,-43 -184,-37 -262,15 -115,77 -229,178 -357,306 -128,129 -230,243 -307,360 -51,78 -57,177 -13,260 67,129 133,257 200,387 -126,219 -225,456 -293,705 -138,44 -276,88 -414,132 -90,29 -156,104 -175,196 -27,136 -36,289 -36,469 0,182 9,335 37,472 19,91 86,165 175,193 138,44 276,88 414,132 68,249 167,486 293,705 -67,129 -133,257 -200,387 -43,84 -37,184 15,262 77,115 178,229 306,357 129,128 243,230 360,307 78,51 177,57 260,13 129,-67 257,-133 387,-200 219,126 456,225 705,293 44,138 88,276 132,414 29,90 104,156 196,175 136,27 289,36 469,36 182,0 335,-9 472,-37 91,-19 165,-86 193,-175 44,-138 88,-276 132,-414 249,-68 486,-167 705,-293 129,67 258,133 387,200 84,43 184,37 262,-15 115,-77 229,-178 357,-306 128,-129 230,-243 307,-360 51,-78 57,-177 13,-260 -67,-129 -133,-257 -200,-387 126,-219 225,-456 293,-705 138,-44 276,-88 414,-132 90,-29 156,-104 175,-196 27,-136 36,-289 36,-469 0,-182 -9,-335 -37,-472zm-3509 -1064c848,0 1535,687 1535,1535 0,848 -687,1535 -1535,1535 -848,0 -1535,-687 -1535,-1535 0,-848 687,-1535 1535,-1535z"/>
   <path class="fil2" d="M52863 0c1592,0 3033,645 4075,1688 1043,1043 1688,2484 1688,4075 0,1591 -646,3032 -1688,4074 -1043,1044 -2484,1690 -4075,1690 -1591,0 -3032,-646 -4074,-1688 -1044,-1044 -1690,-2485 -1690,-4076 0,-1592 645,-3033 1688,-4075 1044,-1043 2485,-1688 4076,-1688zm3675 2089c-940,-940 -2240,-1522 -3675,-1522 -1435,0 -2735,582 -3676,1522 -940,941 -1522,2241 -1522,3676 0,1435 582,2735 1522,3676 941,940 2241,1522 3676,1522 1435,0 2735,-582 3675,-1522 941,-940 1522,-2240 1522,-3675 0,-1435 -582,-2735 -1522,-3675z"/>
  </g>
 </g>
</svg>
