<?xml version="1.0" encoding="UTF-8"?>
<!DOCTYPE svg PUBLIC "-//W3C//DTD SVG 1.1//EN" "http://www.w3.org/Graphics/SVG/1.1/DTD/svg11.dtd">
<!-- Creator: CorelDRAW 2017 -->
<svg xmlns="http://www.w3.org/2000/svg" xml:space="preserve" width="16.525mm" height="17.5269mm" version="1.1" style="shape-rendering:geometricPrecision; text-rendering:geometricPrecision; image-rendering:optimizeQuality; fill-rule:evenodd; clip-rule:evenodd"
viewBox="0 0 60835 64523"
 xmlns:xlink="http://www.w3.org/1999/xlink">
 <defs>
  <style type="text/css">
   <![CDATA[
    .str0 {stroke:#0060AA;stroke-width:623.259}
    .str2 {stroke:#00A0E3;stroke-width:623.259}
    .str1 {stroke:#B0DFF8;stroke-width:623.259}
    .fil1 {fill:#FEFEFE}
    .fil3 {fill:#0060AA}
    .fil0 {fill:#00A0E3}
    .fil2 {fill:#B0DFF8}
    .fil5 {fill:white}
    .fil4 {fill:url(#id0)}
    .fil6 {fill:url(#id1)}
   ]]>
  </style>
  <linearGradient id="id0" gradientUnits="userSpaceOnUse" x1="16776" y1="62757" x2="21438" y2="14289">
   <stop offset="0" style="stop-opacity:1; stop-color:#0060AA"/>
   <stop offset="1" style="stop-opacity:1; stop-color:#00A0E3"/>
  </linearGradient>
  <linearGradient id="id1" gradientUnits="userSpaceOnUse" xlink:href="#id0" x1="54421" y1="12515" x2="54421" y2="312">
  </linearGradient>
 </defs>
 <g id="Warstwa_x0020_1">
  <metadata id="CorelCorpID_0Corel-Layer"/>
  <path class="fil0 str0" d="M12117 12452l30127 2898c1171,113 2129,1172 2129,2354l0 40449c0,1182 -958,2058 -2129,1945l-30127 -2898c-1172,-113 -2130,-1172 -2130,-2354l0 -40449c0,-1182 958,-2057 2130,-1944zm-3112 -1903l7447 -327c2425,-106 3786,1162 4466,3076l-8801 -846c-729,-70 -1374,241 -1759,771l-3170 -305c-7,-126 -13,-254 -18,-387 -43,-1218 1026,-1948 1834,-1983z"/>
  <path class="fil1 str0" d="M10857 15406l30127 2898c1172,113 2130,1171 2130,2354l0 40449c0,1182 -958,2057 -2130,1945l-30127 -2898c-1172,-113 -2130,-1172 -2130,-2354l0 -40449c0,-1182 958,-2057 2130,-1944z"/>
  <path class="fil2 str1" d="M41432 24351l3923 114c867,25 1576,755 1576,1623l0 5711c0,868 -709,1556 -1576,1531l-3923 -114 0 -8864z"/>
  <path class="fil0 str2" d="M41432 35335l3923 114c867,25 1576,755 1576,1623l0 5711c0,868 -709,1556 -1576,1531l-3923 -114 0 -8864z"/>
  <path class="fil3 str0" d="M41432 46172l3923 114c867,25 1576,755 1576,1623l0 5710c0,868 -709,1556 -1576,1531l-3923 -114 0 -8864z"/>
  <path class="fil4 str0" d="M6615 12863l24984 2403c3467,334 6303,3469 6303,6968l0 36194c0,3499 -2836,6089 -6303,5755l-24984 -2403c-3467,-334 -6303,-3469 -6303,-6968l0 -36194c0,-3499 2836,-6089 6303,-5755z"/>
  <path class="fil1" d="M9312 50060l19591 1947c447,44 813,448 813,899l0 0c0,451 -366,786 -813,742l-19591 -1947c-447,-44 -813,-448 -813,-899l0 0c0,-451 366,-786 813,-742z"/>
  <path class="fil1" d="M9312 54369l19591 1947c447,44 813,448 813,899l0 0c0,451 -366,786 -813,742l-19591 -1947c-447,-45 -813,-448 -813,-899l0 0c0,-451 366,-786 813,-742z"/>
  <path class="fil1" d="M9312 45751l19591 1947c447,44 813,448 813,899l0 0c0,451 -366,787 -813,743l-19591 -1947c-447,-44 -813,-448 -813,-899l0 0c0,-451 366,-786 813,-742z"/>
  <path class="fil5" d="M18623 19169c2540,258 4599,2525 4599,5065 0,2540 -2059,4390 -4599,4133 -2540,-258 -4599,-2525 -4599,-5065 0,-2540 2059,-4390 4599,-4133z"/>
  <path class="fil5" d="M22967 30001c2936,456 5289,3146 5289,6120l0 1612c0,2051 -1677,3558 -3728,3350l-10842 -1100c-2050,-208 -3728,-2055 -3728,-4106l0 -1612c0,-2839 2145,-4985 4894,-5052 1012,1089 2448,1850 4039,2012 1611,163 3061,-320 4075,-1224z"/>
  <path class="fil6 str0" d="M54421 312c3370,0 6102,2732 6102,6102 0,3370 -2732,6102 -6102,6102 -3370,0 -6102,-2732 -6102,-6102 0,-3370 2732,-6102 6102,-6102z"/>
  <path class="fil5" d="M51553 7314c-84,-42 -159,-30 -233,-31 -102,-2 -204,3 -305,-5 -286,-25 -477,-205 -508,-493 -28,-256 -36,-515 -4,-772 42,-347 206,-503 557,-526 122,-8 244,-6 366,0 86,4 142,-24 174,-106 54,-137 132,-268 132,-432 -173,-81 -292,-218 -381,-381 -92,-168 -98,-337 7,-503 147,-229 305,-450 507,-635 246,-226 532,-237 789,-29 100,81 194,170 286,260 63,61 118,67 199,27 374,-189 375,-187 384,-607 2,-88 2,-176 30,-262 73,-223 226,-356 457,-377 291,-26 584,-21 876,-4 219,13 377,166 404,389 17,147 13,298 17,447 3,87 -6,176 21,263 152,53 299,104 456,159 94,-80 191,-164 291,-244 296,-234 559,-230 845,18 195,170 360,370 492,593 143,241 114,445 -85,644 -81,81 -170,155 -263,238 39,149 112,289 137,443 13,77 73,91 137,95 102,7 204,10 305,18 95,7 191,11 283,30 232,46 378,191 407,423 35,277 40,557 2,833 -44,317 -232,478 -550,494 -129,7 -258,9 -387,6 -94,-3 -153,35 -191,119 -47,105 -96,209 -123,312 14,71 70,94 109,127 89,76 169,160 225,261 119,214 126,428 -21,632 -160,222 -347,419 -554,596 -218,187 -410,189 -645,14 -146,-109 -285,-228 -429,-343 -125,58 -241,111 -357,164 -66,30 -78,91 -82,153 -10,149 -20,298 -25,447 -15,419 -201,609 -614,624 -177,6 -354,11 -530,5 -408,-15 -621,-235 -635,-642 -4,-116 11,-230 18,-346 11,-166 -14,-199 -169,-256 -127,-47 -256,-88 -389,-133 -109,62 -177,168 -268,246 -346,299 -570,301 -913,-1 -153,-135 -296,-281 -408,-453 -168,-258 -155,-514 39,-752 64,-79 136,-152 211,-221 81,-74 115,-147 38,-245 -64,-81 -87,-184 -130,-283zm2869 -2788c997,0 1806,845 1806,1887 0,1043 -808,1888 -1806,1888 -997,0 -1806,-845 -1806,-1888 0,-1043 808,-1887 1806,-1887z"/>
 </g>
</svg>
