<?xml version="1.0" encoding="UTF-8"?>
<!DOCTYPE svg PUBLIC "-//W3C//DTD SVG 1.1//EN" "http://www.w3.org/Graphics/SVG/1.1/DTD/svg11.dtd">
<!-- Creator: CorelDRAW 2017 -->
<svg xmlns="http://www.w3.org/2000/svg" xml:space="preserve" width="14.6619mm" height="15.383mm" version="1.1" style="shape-rendering:geometricPrecision; text-rendering:geometricPrecision; image-rendering:optimizeQuality; fill-rule:evenodd; clip-rule:evenodd"
viewBox="0 0 35065 36789"
 xmlns:xlink="http://www.w3.org/1999/xlink">
 <defs>
  <style type="text/css">
   <![CDATA[
    .str0 {stroke:#00A0E3;stroke-width:404.888;stroke-linecap:round;stroke-linejoin:round}
    .fil0 {fill:none}
    .fil3 {fill:#00A0E3}
    .fil1 {fill:white}
    .fil2 {fill:#00A0E3;fill-rule:nonzero}
   ]]>
  </style>
 </defs>
 <g id="Warstwa_x0020_1">
  <metadata id="CorelCorpID_0Corel-Layer"/>
  <path class="fil0 str0" d="M32338 27807l0 7767c0,557 -456,1012 -1012,1012l-15591 0c-557,0 -1013,-455 -1013,-1012l0 -9112c0,-557 455,-1012 1013,-1012l12454 0"/>
  <path class="fil1" d="M15734 25450l15591 0c557,0 1012,455 1012,1012l0 9112c0,557 -455,1012 -1012,1012l-15591 0c-557,0 -1013,-455 -1013,-1012l0 -9112c0,-557 455,-1012 1013,-1012z"/>
  <path class="fil2" d="M32135 27807c0,-112 91,-203 203,-203 112,0 203,91 203,203l0 7767c0,334 -137,637 -357,857 -221,221 -525,358 -858,358l-15591 0c-334,0 -638,-137 -858,-357 -221,-220 -358,-524 -358,-858l0 -9112c0,-335 137,-639 357,-858 220,-220 524,-357 859,-357l12454 0c112,0 203,91 203,203 0,112 -91,203 -203,203l-12454 0c-223,0 -425,91 -572,238 -147,147 -238,349 -238,572l0 9112c0,222 91,425 238,572 146,147 349,238 572,238l15591 0c222,0 425,-91 572,-237 147,-148 238,-350 238,-573l0 -7767z"/>
  <path class="fil3" d="M21732 2275l-5273 0 0 1388 4040 -8c546,0 981,455 981,1007l0 19572 1346 0 0 -20855c0,-601 -482,-1104 -1093,-1104z"/>
  <path class="fil3" d="M14290 18c-2490,422 -4846,828 -7106,1202 -2146,373 -4214,714 -6168,1055 -556,98 -1015,747 -1015,1461 0,4531 0,9061 0,13576 0,4531 0,9061 0,13576 0,714 460,1364 1015,1461 1954,341 4023,682 6168,1055 2022,334 4120,694 6323,1069l0 -8011c0,-298 61,-586 171,-851 114,-275 279,-520 482,-723 202,-202 448,-368 723,-482l11 -5 1 0 11 -4 8 -3 3 -1 3 -1 9 -4 4 -1 8 -3 5 -2 13 -5 13 -5 5 -2 7 -3 13 -5 13 -5 13 -4 13 -4 1 0 12 -4 0 0 13 -4 11 -3 2 -1 10 -3 3 -1 13 -4 13 -4 13 -4 13 -4 5 -1 8 -2 4 -1 9 -2 3 -1 10 -3 13 -3 13 -3 0 0 12 -3 0 0 13 -3 13 -3 10 -2 4 -1 9 -2 5 -1 13 -3 7 -1 7 -1 6 -1 8 -1 5 -1 8 -2 14 -3 13 -2 13 -2 13 -2 14 -2 11 -2 2 0 14 -2 10 -1 4 0 13 -2 8 -1 6 -1 7 -1 7 -1 6 -1 8 -1 14 -2 14 -1 3 0 11 -1 2 0 12 -1 1 0 13 -1 0 0 12 -1 1 0 11 -1 2 0 14 -1 10 -1 4 0 8 0 6 0 7 0 6 0 6 0 7 0 6 0 8 0 5 0 0 -6924c0,-5326 0,-10652 0,-15995 0,-844 -632,-1429 -1379,-1299zm-1279 17565c559,0 1012,453 1012,1012 0,559 -453,1012 -1012,1012 -559,0 -1012,-453 -1012,-1012 0,-559 453,-1012 1012,-1012z"/>
  <path class="fil3" d="M18806 28035c711,0 1287,576 1287,1287 0,711 -576,1287 -1287,1287 -711,0 -1287,-576 -1287,-1287 0,-711 576,-1287 1287,-1287zm15613 -1172c-100,-70 -163,-182 -173,-304 -6,-76 -162,-1766 -1862,-2963 -1702,-1199 -3348,-774 -3418,-755 -218,60 -443,-68 -503,-285 -60,-218 67,-443 285,-503 84,-23 2077,-555 4107,875 2030,1430 2200,3485 2207,3572 16,225 -153,421 -378,437 -94,7 -188,-19 -265,-74zm-1408 342c-100,-70 -163,-181 -173,-302 -128,-848 -606,-1602 -1317,-2081 -690,-509 -1562,-704 -2403,-540 -220,52 -440,-84 -492,-303 -50,-209 71,-421 277,-485 1077,-228 2200,11 3090,659 910,620 1514,1597 1662,2688 16,225 -153,421 -378,437 -94,7 -187,-19 -265,-73zm-1520 264c-104,-73 -168,-189 -173,-316 -105,-868 -894,-1487 -1763,-1382 -54,6 -108,16 -161,28 -216,65 -444,-58 -509,-275 -64,-213 54,-438 266,-506 1282,-330 2589,442 2919,1724 32,124 54,250 65,377 9,226 -167,416 -393,424 -90,3 -178,-23 -251,-74zm-8346 4445l4218 0c167,0 304,137 304,303l0 0c0,167 -137,303 -304,303l-4218 0c-167,0 -303,-137 -303,-303l0 0c0,-167 137,-303 303,-303zm-3124 -970c822,44 1480,730 1480,1563l0 451c0,574 -469,1043 -1043,1043l-3034 0c-574,0 -1043,-469 -1043,-1043l0 -451c0,-795 600,-1456 1370,-1553 283,276 685,448 1130,448 451,0 857,-176 1141,-458zm3124 -1428l7114 0c167,0 303,137 303,303l0 0c0,167 -137,303 -303,303l-7114 0c-167,0 -303,-137 -303,-303l0 0c0,-167 137,-303 303,-303z"/>
 </g>
</svg>
