<?xml version="1.0" encoding="UTF-8"?>
<!DOCTYPE svg PUBLIC "-//W3C//DTD SVG 1.1//EN" "http://www.w3.org/Graphics/SVG/1.1/DTD/svg11.dtd">
<!-- Creator: CorelDRAW 2017 -->
<svg xmlns="http://www.w3.org/2000/svg" xml:space="preserve" width="17.3326mm" height="14.8465mm" version="1.1" style="shape-rendering:geometricPrecision; text-rendering:geometricPrecision; image-rendering:optimizeQuality; fill-rule:evenodd; clip-rule:evenodd"
viewBox="0 0 49442 42350"
 xmlns:xlink="http://www.w3.org/1999/xlink">
 <defs>
  <style type="text/css">
   <![CDATA[
    .str0 {stroke:#0060AA;stroke-width:217.363}
    .fil2 {fill:#0060AA}
    .fil0 {fill:white}
    .fil1 {fill:#0C4D85;fill-rule:nonzero}
    .fil3 {fill:white;fill-rule:nonzero}
   ]]>
  </style>
 </defs>
 <g id="Warstwa_x0020_1">
  <metadata id="CorelCorpID_0Corel-Layer"/>
  <path class="fil0" d="M2818 26479c0,1919 1632,2568 3245,2635 1804,75 3612,219 5410,301 3645,166 7327,450 10981,618 675,31 2064,116 3766,222l-2326 -12202 -2680 0c-1045,0 -1893,-848 -1893,-1893 0,-1045 848,-1893 1893,-1893l3446 0c1372,0 2552,977 2809,2325l464 2434 13858 0 0 -13584c0,-1523 -1405,-2850 -2943,-2916 -1503,-65 -3810,207 -5408,293 -9018,484 -18580,1139 -27533,1518 -1565,66 -3089,908 -3089,2651l0 19489z"/>
  <path class="fil1" d="M3070 26479c0,775 292,1317 742,1683 576,468 1420,667 2262,702 967,40 1916,99 2863,157 858,53 1716,106 2548,144 1849,84 3687,197 5525,310 1827,112 3656,225 5456,308 680,31 2040,114 3706,218l97 509c-1737,-109 -3155,-195 -3825,-226 -1832,-84 -3649,-196 -5464,-308 -1849,-114 -3699,-228 -5517,-310 -864,-39 -1710,-92 -2556,-144 -957,-59 -1916,-119 -2852,-157 -938,-39 -1888,-269 -2559,-814 -564,-458 -928,-1126 -928,-2072l0 -19489c0,-887 361,-1563 918,-2042 632,-542 1518,-822 2413,-860 5640,-239 11549,-590 17409,-937 3399,-201 6782,-402 10120,-581 494,-27 1092,-74 1711,-124 1290,-103 2683,-214 3721,-169 841,36 1644,420 2232,1002 578,573 952,1342 952,2164l0 13584 -503 0 0 -13584c0,-683 -315,-1325 -802,-1809 -503,-498 -1187,-826 -1899,-857 -999,-43 -2380,67 -3661,169 -605,48 -1188,95 -1725,124 -3297,177 -6699,379 -10116,581 -5847,347 -11744,697 -17420,937 -789,33 -1564,274 -2106,739 -450,387 -741,937 -741,1661l0 19489z"/>
  <path class="fil2" d="M252 24213c0,1919 1632,2568 3245,2635 1804,75 3612,219 5410,301 3645,166 7327,450 10981,618 945,43 3285,192 5926,358l-1920 -10071 -2680 0c-1045,0 -1893,-848 -1893,-1893 0,-1045 848,-1893 1893,-1893l3446 0c1372,0 2552,977 2809,2325l464 2434 11291 0 0 -15850c0,-1523 -1405,-2850 -2943,-2916 -1503,-65 -3810,207 -5408,293 -9018,484 -18580,1139 -27533,1518 -1565,66 -3089,908 -3089,2651l0 19489z"/>
  <path class="fil1" d="M503 24213c0,775 292,1317 742,1683 576,468 1420,667 2262,702 967,40 1916,99 2863,157 858,53 1716,106 2548,144 1849,84 3687,197 5525,310 1827,112 3656,225 5456,308 864,39 2826,163 5118,307l748 47 97 509 -877 -55c-2306,-145 -4280,-269 -5109,-307 -1832,-84 -3649,-196 -5464,-308 -1849,-114 -3699,-228 -5517,-310 -864,-39 -1710,-92 -2556,-144 -957,-59 -1916,-119 -2852,-157 -938,-39 -1888,-269 -2559,-814 -564,-458 -928,-1126 -928,-2072l0 -19489c0,-887 361,-1563 918,-2042 632,-542 1518,-822 2413,-860 5640,-239 11549,-590 17409,-937 3399,-201 6782,-402 10120,-581 494,-27 1092,-74 1711,-124 1290,-103 2683,-214 3721,-169 841,36 1644,420 2232,1002 578,573 952,1342 952,2164l0 15850 -503 0 0 -15850c0,-683 -315,-1325 -802,-1809 -503,-498 -1187,-826 -1899,-857 -999,-43 -2380,67 -3661,169 -605,48 -1188,95 -1725,124 -3297,177 -6699,379 -10116,581 -5847,347 -11744,697 -17420,937 -789,33 -1564,274 -2106,739 -450,387 -741,937 -741,1661l0 19489z"/>
  <path class="fil0" d="M10828 14314c380,-301 1819,249 2650,1627 830,1377 934,4055 -760,4960 -754,403 -5240,82 -6288,56 -4097,-100 -2845,-6035 -370,-6585 1097,-244 1940,2184 4768,-58zm-2379 -667c-935,0 -1943,-883 -2272,-1704 -853,-2129 1208,-4705 3334,-3790 2425,1044 2054,5493 -1062,5493zm8831 -5835l15967 -582c375,-14 783,303 808,678l0 0c25,375 -387,958 -761,964l-15924 303c-374,7 -701,-300 -726,-675l0 0c-25,-375 262,-674 637,-688zm35 3428l9509 -145c375,-5 765,346 769,721l0 0c4,376 -439,926 -813,921l-9451 -131c-374,-5 -684,-338 -688,-714l0 0c-4,-376 299,-646 673,-652z"/>
  <path class="fil0" d="M29729 34542l-40 74 15126 0c1045,0 1893,848 1893,1893 0,757 -445,1411 -1088,1714 41,213 62,432 62,654 0,1918 -1556,3474 -3474,3474 -1918,0 -3474,-1556 -3474,-3474 0,-160 11,-319 33,-474l-4406 0c21,155 33,314 33,474 0,1918 -1556,3474 -3474,3474 -1918,0 -3474,-1556 -3474,-3474 0,-326 45,-644 132,-947 -527,-302 -977,-739 -1300,-1283 -652,-1094 -678,-2432 -70,-3551l410 -756 -2723 -14285 -2680 0c-1045,0 -1893,-848 -1893,-1893 0,-1045 848,-1893 1893,-1893l3446 0c1372,0 2552,977 2809,2325l464 2434 18107 0c1065,0 2056,490 2702,1336 646,846 859,1931 578,2958l-2377 8715c-403,1477 -1750,2506 -3280,2506l-13935 0z"/>
  <path class="fil2" d="M46040 20453l-19287 0 -685 -3593c-129,-675 -721,-1165 -1408,-1165l-3446 0c-258,0 -467,209 -467,467 0,258 209,467 467,467l3446 0c240,0 446,171 491,407l2962 15538 -653 1203c-368,678 -352,1478 42,2141 395,663 1091,1059 1862,1059l793 0c-753,302 -1285,1039 -1285,1900 0,1131 917,2048 2048,2048 1131,0 2048,-917 2048,-2048 0,-861 -532,-1598 -1285,-1900l9764 0c-753,302 -1285,1039 -1285,1900 0,1131 917,2048 2048,2048 1131,0 2048,-917 2048,-2048 0,-861 -532,-1598 -1285,-1900l1844 0c258,0 467,-209 467,-467 0,-258 -209,-467 -467,-467l-15451 0c-439,0 -835,-225 -1060,-602 -224,-377 -233,-833 -24,-1219l600 -1105 14783 0c887,0 1671,-598 1904,-1455l2377 -8715c163,-598 41,-1224 -336,-1718 -377,-493 -948,-776 -1569,-776zm-4842 7905l-3764 0 0 -3037 4300 0 -536 3037zm1504 -3037l3627 0 -828 3037 -3335 0 536 -3037zm-13714 6861l-551 -2891 3475 0 510 2891 -3434 0zm7492 -6861l0 3037 -3764 0 -536 -3037 4300 0zm-4465 -933l-529 -3001 4995 0 0 3001 -4465 0zm-267 3970l-3489 0 -579 -3037 3531 0 536 3037zm1133 934l3600 0 0 2891 -3090 0 -510 -2891zm4553 0l3600 0 -510 2891 -3089 0 0 -2891zm0 -4904l0 -3001 4995 0 -530 3001 -4465 0zm-6916 -3001l530 3001 -3545 0 -572 -3001 3587 0zm14149 10029c-123,451 -536,766 -1004,766l-2172 0 510 -2891 3245 0 -579 2124zm2376 -8715l-460 1687 -3717 0 530 -3001 2643 0c327,0 628,149 827,409 199,260 263,590 177,905z"/>
  <g id="_1265176014832">
   <path class="fil0" d="M25624 21031c3370,0 6102,2732 6102,6102 0,3370 -2732,6102 -6102,6102 -3370,0 -6102,-2732 -6102,-6102 0,-3370 2732,-6102 6102,-6102z"/>
   <path class="fil2 str0" d="M25624 22458c2582,0 4676,2093 4676,4676 0,2582 -2093,4676 -4676,4676 -2582,0 -4676,-2093 -4676,-4676 0,-2582 2093,-4676 4676,-4676z"/>
   <polygon class="fil3" points="25072,30279 25072,27672 22478,27672 22478,26581 25072,26581 25072,23987 26176,23987 26176,26581 28770,26581 28770,27672 26176,27672 26176,30279 "/>
  </g>
 </g>
</svg>
