<?xml version="1.0" encoding="UTF-8"?>
<!DOCTYPE svg PUBLIC "-//W3C//DTD SVG 1.1//EN" "http://www.w3.org/Graphics/SVG/1.1/DTD/svg11.dtd">
<!-- Creator: CorelDRAW 2017 -->
<svg xmlns="http://www.w3.org/2000/svg" xml:space="preserve" width="17.4958mm" height="19.2721mm" version="1.1" style="shape-rendering:geometricPrecision; text-rendering:geometricPrecision; image-rendering:optimizeQuality; fill-rule:evenodd; clip-rule:evenodd"
viewBox="0 0 58362 64287"
 xmlns:xlink="http://www.w3.org/1999/xlink">
 <defs>
  <style type="text/css">
   <![CDATA[
    .str0 {stroke:#3CAB3D;stroke-width:846.952}
    .fil2 {fill:#0060AA}
    .fil0 {fill:white}
    .fil3 {fill:#0060AA;fill-rule:nonzero}
    .fil1 {fill:#0C4D85;fill-rule:nonzero}
   ]]>
  </style>
 </defs>
 <g id="Warstwa_x0020_1">
  <metadata id="CorelCorpID_0Corel-Layer"/>
  <path class="fil0" d="M3295 47395c0,2245 1908,3003 3795,3082 2109,88 4224,257 6326,352 4263,194 8568,526 12841,723 1215,56 4404,261 7863,477l0 -12931c0,-319 62,-628 174,-912 115,-290 287,-558 503,-786 218,-227 477,-413 763,-539 287,-129 601,-199 926,-199l12384 0 0 -13867c0,-1781 -1644,-3332 -3441,-3410 -1757,-76 -4456,243 -6324,343 -10545,565 -21728,1332 -32197,1776 -1831,77 -3613,1062 -3613,3101l0 22791z"/>
  <path class="fil1" d="M3590 47395c0,906 341,1540 867,1968 674,547 1660,780 2645,821 1131,47 2241,116 3347,184 1003,62 2006,124 2980,168 2162,98 4312,231 6461,363 2136,131 4275,263 6380,360 1010,46 3305,190 5985,359l1865 117 0 589 -1901 -119c-2697,-169 -5005,-315 -5974,-359 -2142,-98 -4267,-230 -6389,-360 -2163,-133 -4325,-266 -6452,-363 -1010,-46 -2000,-107 -2989,-168 -1119,-69 -2241,-139 -3335,-184 -1097,-45 -2207,-315 -2993,-952 -659,-535 -1085,-1317 -1085,-2423l0 -22791c0,-1037 422,-1828 1074,-2388 739,-634 1776,-961 2822,-1005 6595,-280 13506,-690 20359,-1096 3974,-236 7930,-471 11835,-680 578,-31 1277,-87 2001,-144 1509,-120 3138,-250 4351,-198 983,42 1923,491 2610,1172 676,670 1113,1569 1113,2531l0 13867 -588 0 0 -13867c0,-799 -368,-1550 -938,-2115 -588,-582 -1388,-966 -2220,-1002 -1168,-50 -2784,79 -4281,198 -708,56 -1389,111 -2017,144 -3856,207 -7834,443 -11830,680 -6838,405 -13733,815 -20371,1096 -923,39 -1829,320 -2463,865 -526,452 -867,1096 -867,1943l0 22791z"/>
  <path class="fil2" d="M294 44746c0,2245 1908,3003 3795,3082 2109,88 4224,257 6326,352 4263,194 8568,526 12841,723 1563,72 6395,391 10864,662l0 -10466c0,-319 62,-628 174,-912 115,-290 287,-558 503,-786 218,-227 477,-413 763,-539 287,-129 601,-199 926,-199l9383 0 0 -16517c0,-1781 -1644,-3332 -3441,-3410 -1757,-76 -4456,243 -6324,343 -10545,565 -21728,1332 -32197,1776 -1831,77 -3613,1062 -3613,3101l0 22791z"/>
  <path class="fil1" d="M588 44746c0,906 341,1540 867,1968 674,547 1660,780 2645,821 1131,47 2241,116 3347,184 1003,62 2006,124 2980,168 2162,98 4312,231 6461,363 2136,131 4275,263 6380,360 1010,46 3305,190 5985,359 1552,97 3233,203 4866,302l0 589c-1645,-100 -3339,-206 -4903,-305 -2697,-169 -5005,-315 -5974,-359 -2142,-98 -4267,-230 -6389,-360 -2163,-133 -4325,-266 -6452,-363 -1010,-46 -2000,-107 -2989,-168 -1119,-69 -2241,-139 -3335,-184 -1097,-45 -2207,-315 -2993,-952 -659,-535 -1085,-1317 -1085,-2423l0 -22791c0,-1037 422,-1828 1074,-2388 739,-634 1776,-961 2822,-1005 6595,-280 13506,-690 20359,-1096 3974,-236 7930,-471 11835,-680 578,-31 1277,-87 2001,-144 1509,-120 3138,-250 4351,-198 983,42 1923,491 2610,1172 676,670 1113,1569 1113,2531l0 16517 -588 0 0 -16517c0,-799 -368,-1550 -938,-2115 -588,-582 -1388,-966 -2220,-1002 -1168,-50 -2784,79 -4281,198 -708,56 -1389,111 -2017,144 -3856,207 -7834,443 -11830,680 -6838,405 -13733,815 -20371,1096 -923,39 -1829,320 -2463,865 -526,452 -867,1096 -867,1943l0 22791z"/>
  <path class="fil0" d="M12662 33169c444,-352 2128,292 3099,1902 971,1610 1092,4742 -889,5801 -882,471 -6128,96 -7353,66 -4792,-117 -3327,-7058 -433,-7701 1283,-285 2269,2554 5576,-68zm-2782 -780c-1094,0 -2272,-1032 -2657,-1992 -998,-2489 1413,-5502 3899,-4432 2835,1221 2402,6424 -1242,6424zm10198 363l11120 -170c439,-6 895,404 899,844l0 0c5,440 -513,1083 -951,1077l-11052 -153c-437,-6 -800,-396 -804,-835l0 0c-5,-440 350,-756 788,-762zm170 6848l18681 354c439,8 895,404 899,844l0 0c5,439 -513,1093 -951,1077l-18613 -678c-437,-16 -800,-395 -804,-835l0 0c-4,-440 350,-771 788,-762zm-42 -14034l18672 -681c439,-16 916,354 945,793l0 0c29,439 -452,1120 -890,1128l-18622 354c-437,8 -820,-351 -849,-789l0 0c-29,-439 307,-789 745,-805z"/>
  <path class="fil0 str0" d="M36486 38216l18427 0c460,0 835,376 835,835l0 23978c0,459 -375,835 -835,835l-18427 0c-459,0 -835,-376 -835,-835l0 -23978c0,-459 376,-835 835,-835z"/>
  <path class="fil2" d="M45765 44583l6930 0c266,0 482,217 482,483l0 0c0,266 -216,482 -482,482l-6930 0c-266,0 -483,-217 -483,-482l0 0c0,-266 217,-483 483,-483zm-6989 12969c-143,-183 -111,-449 73,-592 183,-143 449,-111 592,73l890 1137 1760 -2499c134,-191 398,-237 589,-102 191,134 237,398 102,589l-2088 2964c-24,33 -52,63 -86,89 -183,143 -449,111 -592,-73l-1240 -1586zm0 -6177c-143,-183 -111,-449 73,-592 183,-143 449,-111 592,73l890 1137 1760 -2500c134,-191 398,-237 589,-102 191,134 237,398 102,589l-2088 2965c-24,33 -52,63 -86,89 -183,143 -449,111 -592,-73l-1240 -1586zm0 -6177c-143,-183 -111,-449 73,-592 183,-143 449,-111 592,73l890 1137 1760 -2500c134,-191 398,-237 589,-102 191,134 237,398 102,589l-2088 2965c-24,33 -52,63 -86,89 -183,143 -449,111 -592,-73l-1240 -1586zm6989 11739l6930 0c266,0 482,217 482,483l0 0c0,266 -216,482 -482,482l-6930 0c-266,0 -483,-216 -483,-482l0 0c0,-266 217,-483 483,-483zm0 -6177l6930 0c266,0 482,217 482,483l0 0c0,266 -216,482 -482,482l-6930 0c-266,0 -483,-217 -483,-482l0 0c0,-266 217,-483 483,-483z"/>
  <path class="fil3" d="M36486 37793l18427 0c339,0 648,147 872,383 225,236 364,563 364,923l0 23883c0,359 -139,687 -363,923 -225,236 -534,383 -873,383l-18427 0c-339,0 -647,-147 -872,-383 -225,-239 -364,-565 -364,-923l0 -23883c0,-358 139,-685 364,-922 222,-237 532,-384 872,-384zm18427 847l-18427 0c-119,0 -228,52 -306,135 -80,82 -128,197 -128,324l0 23883c0,127 48,242 126,324 79,84 188,135 308,135l18427 0c119,0 229,-51 307,-134 78,-84 127,-199 127,-325l0 -23883c0,-125 -49,-241 -128,-324 -78,-83 -187,-135 -306,-135z"/>
  <g id="_1265110069024">
   <path class="fil2" d="M52612 283c3020,0 5468,2448 5468,5468 0,3020 -2448,5468 -5468,5468 -3020,0 -5468,-2448 -5468,-5468 0,-3020 2448,-5468 5468,-5468zm3501 4997c-19,-91 -86,-164 -174,-192 -138,-44 -276,-88 -413,-131 -68,-249 -166,-485 -292,-704 67,-129 133,-257 199,-386 43,-83 37,-183 -15,-262 -77,-115 -178,-229 -305,-356 -128,-128 -243,-230 -359,-306 -77,-51 -177,-56 -259,-13 -128,66 -257,133 -386,199 -218,-125 -455,-224 -704,-292 -44,-138 -88,-275 -131,-413 -29,-89 -103,-156 -195,-175 -136,-27 -288,-36 -468,-36 -181,0 -334,9 -471,37 -91,19 -164,86 -192,174 -44,138 -88,276 -131,413 -249,68 -485,166 -704,292 -129,-67 -257,-133 -386,-199 -83,-43 -183,-37 -262,15 -115,77 -229,178 -356,305 -128,128 -230,243 -306,359 -51,77 -56,177 -13,259 66,128 133,257 199,386 -125,218 -224,455 -292,704 -138,44 -275,88 -413,131 -89,29 -156,103 -175,195 -27,136 -36,288 -36,468 0,181 9,334 37,471 19,91 86,164 174,192 138,44 276,88 413,131 68,249 166,485 292,704 -67,129 -133,257 -199,386 -43,83 -37,183 15,262 77,115 178,229 305,356 128,128 243,230 359,306 77,51 177,56 259,13 128,-66 257,-133 386,-199 218,125 455,224 704,292 44,138 88,275 131,413 29,89 103,156 195,175 136,27 288,36 468,36 181,0 334,-9 471,-37 91,-19 164,-86 192,-174 44,-138 88,-276 131,-413 249,-68 485,-166 704,-292 129,67 257,133 386,199 83,43 183,37 262,-15 115,-77 229,-178 356,-305 128,-128 230,-243 306,-359 51,-77 56,-177 13,-259 -66,-128 -133,-257 -199,-386 125,-218 224,-455 292,-704 138,-44 275,-88 413,-131 89,-29 156,-103 175,-195 27,-136 36,-288 36,-468 0,-181 -9,-334 -37,-471zm-3501 -1061c846,0 1532,686 1532,1532 0,846 -686,1532 -1532,1532 -846,0 -1532,-686 -1532,-1532 0,-846 686,-1532 1532,-1532z"/>
   <path class="fil3" d="M52612 0c1588,0 3026,644 4066,1684 1040,1040 1684,2478 1684,4066 0,1587 -644,3025 -1684,4065 -1040,1042 -2478,1686 -4066,1686 -1587,0 -3025,-644 -4065,-1684 -1041,-1042 -1686,-2479 -1686,-4066 0,-1588 644,-3026 1684,-4066 1042,-1040 2479,-1684 4066,-1684zm3666 2084c-938,-938 -2235,-1519 -3666,-1519 -1432,0 -2729,580 -3667,1518 -937,939 -1518,2235 -1518,3667 0,1432 580,2729 1518,3667 938,938 2235,1518 3667,1518 1432,0 2728,-581 3666,-1519 938,-938 1519,-2235 1519,-3667 0,-1432 -581,-2728 -1519,-3666z"/>
  </g>
 </g>
</svg>
