<?xml version="1.0" encoding="UTF-8"?>
<!DOCTYPE svg PUBLIC "-//W3C//DTD SVG 1.1//EN" "http://www.w3.org/Graphics/SVG/1.1/DTD/svg11.dtd">
<!-- Creator: CorelDRAW 2017 -->
<svg xmlns="http://www.w3.org/2000/svg" xml:space="preserve" width="17.2157mm" height="15.2994mm" version="1.1" style="shape-rendering:geometricPrecision; text-rendering:geometricPrecision; image-rendering:optimizeQuality; fill-rule:evenodd; clip-rule:evenodd"
viewBox="0 0 48919 43474"
 xmlns:xlink="http://www.w3.org/1999/xlink">
 <defs>
  <style type="text/css">
   <![CDATA[
    .fil3 {fill:#0D6C6B}
    .fil2 {fill:white}
    .fil1 {fill:#0D6C6B;fill-rule:nonzero}
    .fil0 {fill:url(#id0)}
   ]]>
  </style>
  <linearGradient id="id0" gradientUnits="userSpaceOnUse" x1="17452" y1="241" x2="17452" y2="34663">
   <stop offset="0" style="stop-opacity:1; stop-color:#16A1A1"/>
   <stop offset="1" style="stop-opacity:1; stop-color:#0D6C6B"/>
  </linearGradient>
 </defs>
 <g id="Warstwa_x0020_1">
  <metadata id="CorelCorpID_0Corel-Layer"/>
  <path class="fil0" d="M17452 241c9505,0 17211,7706 17211,17211 0,4233 -1529,8108 -4064,11106l-4647 0c-353,0 -696,73 -1011,204 -326,136 -619,332 -859,572 -241,241 -437,533 -572,859 -131,315 -204,657 -204,1011l0 2437c-1827,661 -3798,1022 -5853,1022 -9505,0 -17211,-7706 -17211,-17211 0,-9505 7706,-17211 17211,-17211zm6487 21243l0 0c-257,420 -810,553 -1229,296l-4554 -2788c-212,107 -451,167 -704,167 -864,0 -1565,-700 -1565,-1565 0,-532 265,-1001 671,-1284l0 -9502c0,-492 402,-894 894,-894l0 0c492,0 894,402 894,894l0 9502c359,251 609,648 661,1106l4637 2839c420,257 552,810 296,1229zm-6488 -19448l1 0c236,0 429,193 429,429l0 858c0,236 -193,429 -429,429l-1 0c-236,0 -429,-193 -429,-429l0 -858c0,-236 193,-429 429,-429zm0 29115l1 0c236,0 429,193 429,429l0 858c0,236 -193,429 -429,429l-1 0c-236,0 -429,-193 -429,-429l0 -858c0,-236 193,-429 429,-429zm-15135 -13556l0 0c0,-236 193,-429 429,-429l858 0c236,0 429,193 429,429l0 0c0,236 -193,429 -429,429l-858 0c-236,0 -429,-193 -429,-429zm28554 0l0 0c0,-236 193,-429 429,-429l858 0c236,0 429,193 429,429l0 0c0,236 -193,429 -429,429l-858 0c-236,0 -429,-193 -429,-429z"/>
  <path class="fil1" d="M17452 0c4819,0 9182,1954 12340,5111 3158,3158 5111,7521 5111,12340 0,4219 -1497,8088 -3989,11106l-631 0c2578,-2976 4138,-6859 4138,-11106 0,-4686 -1900,-8929 -4970,-12000 -3071,-3071 -7314,-4970 -12000,-4970 -4686,0 -8929,1900 -12000,4970 -3071,3071 -4970,7314 -4970,12000 0,4686 1900,8929 4970,12000 3071,3071 7314,4970 12000,4970 2057,0 4028,-366 5853,-1037l0 512c-1830,651 -3800,1006 -5853,1006 -4819,0 -9182,-1954 -12340,-5111 -3158,-3158 -5111,-7522 -5111,-12340 0,-4819 1954,-9182 5111,-12340 3158,-3158 7522,-5111 12340,-5111z"/>
  <path class="fil2" d="M25952 30001l18525 0c662,0 1203,541 1203,1203l0 10827c0,662 -541,1203 -1203,1203l-18525 0c-662,0 -1203,-541 -1203,-1203l0 -10827c0,-662 541,-1203 1203,-1203z"/>
  <path class="fil1" d="M45439 32801c0,-133 108,-241 241,-241 133,0 241,108 241,241l0 9229c0,396 -163,757 -424,1019 -263,262 -623,425 -1020,425l-18525 0c-397,0 -758,-163 -1019,-424 -262,-261 -425,-622 -425,-1020l0 -10827c0,-398 163,-759 424,-1020 261,-261 623,-424 1020,-424l14797 0c133,0 241,108 241,241 0,133 -108,241 -241,241l-14797 0c-265,0 -506,109 -680,283 -174,174 -283,415 -283,679l0 10827c0,264 109,505 283,679 174,175 415,283 680,283l18525 0c264,0 505,-108 679,-282 175,-176 283,-416 283,-681l0 -9229z"/>
  <path class="fil3" d="M31047 36529c976,53 1759,868 1759,1857l0 536c0,682 -558,1240 -1240,1240l-3605 0c-682,0 -1240,-558 -1240,-1240l0 -536c0,-944 713,-1730 1628,-1845 336,328 814,533 1343,533 536,0 1018,-210 1355,-544zm13628 -4129c-123,-86 -199,-225 -206,-376 -124,-1032 -1062,-1767 -2094,-1642 -64,8 -128,19 -191,33 -257,77 -528,-69 -605,-326 -76,-253 65,-520 316,-602 1523,-392 3076,525 3468,2049 38,147 64,297 78,448 10,268 -199,494 -467,504 -107,4 -211,-27 -298,-88zm1806 -313c-118,-83 -194,-215 -205,-359 -152,-1007 -720,-1904 -1565,-2472 -820,-604 -1856,-837 -2856,-641 -261,62 -523,-99 -585,-360 -59,-249 85,-501 329,-576 1280,-271 2614,13 3672,783 1081,737 1799,1897 1974,3193 19,268 -182,500 -450,520 -112,8 -223,-23 -314,-87zm1673 -407c-119,-84 -194,-216 -205,-361 -7,-91 -192,-2098 -2212,-3521 -2022,-1424 -3978,-920 -4061,-897 -259,71 -526,-80 -598,-339 -72,-259 80,-527 339,-598 100,-28 2467,-660 4879,1039 2412,1699 2615,4141 2622,4244 19,268 -182,500 -450,520 -112,8 -223,-23 -315,-88zm-18551 1393c845,0 1529,685 1529,1529 0,845 -685,1529 -1529,1529 -845,0 -1529,-685 -1529,-1529 0,-845 685,-1529 1529,-1529zm5156 4608l5012 0c198,0 361,162 361,361l0 1c0,198 -163,361 -361,361l-5012 0c-198,0 -361,-162 -361,-361l0 -1c0,-198 162,-361 361,-361zm0 -2850l8452 0c198,0 361,162 361,361l0 1c0,198 -162,361 -361,361l-8452 0c-198,0 -361,-162 -361,-361l0 -1c0,-198 162,-361 361,-361z"/>
 </g>
</svg>
