<?xml version="1.0" encoding="UTF-8"?>
<!DOCTYPE svg PUBLIC "-//W3C//DTD SVG 1.1//EN" "http://www.w3.org/Graphics/SVG/1.1/DTD/svg11.dtd">
<!-- Creator: CorelDRAW 2017 -->
<svg xmlns="http://www.w3.org/2000/svg" xml:space="preserve" width="18.2243mm" height="18.0362mm" version="1.1" style="shape-rendering:geometricPrecision; text-rendering:geometricPrecision; image-rendering:optimizeQuality; fill-rule:evenodd; clip-rule:evenodd"
viewBox="0 0 63376 62722"
 xmlns:xlink="http://www.w3.org/1999/xlink">
 <defs>
  <style type="text/css">
   <![CDATA[
    .fil5 {fill:#0D6C6B}
    .fil2 {fill:#0D6C6B;fill-rule:nonzero}
    .fil6 {fill:url(#id0)}
    .fil4 {fill:url(#id1)}
    .fil1 {fill:url(#id2)}
    .fil0 {fill:url(#id3)}
    .fil3 {fill:url(#id4)}
   ]]>
  </style>
  <linearGradient id="id0" gradientUnits="userSpaceOnUse" x1="57382" y1="295" x2="57382" y2="11695">
   <stop offset="0" style="stop-opacity:1; stop-color:#16A1A1"/>
   <stop offset="1" style="stop-opacity:1; stop-color:#0D6C6B"/>
  </linearGradient>
  <linearGradient id="id1" gradientUnits="userSpaceOnUse" xlink:href="#id0" x1="35601" y1="53218" x2="35601" y2="61009">
  </linearGradient>
  <linearGradient id="id2" gradientUnits="userSpaceOnUse" xlink:href="#id0" x1="53731" y1="37169" x2="53731" y2="60695">
  </linearGradient>
  <linearGradient id="id3" gradientUnits="userSpaceOnUse" xlink:href="#id0" x1="21358" y1="9595" x2="21358" y2="51721">
  </linearGradient>
  <linearGradient id="id4" gradientUnits="userSpaceOnUse" xlink:href="#id0" x1="44666" y1="45467" x2="44666" y2="61051">
  </linearGradient>
 </defs>
 <g id="Warstwa_x0020_1">
  <metadata id="CorelCorpID_0Corel-Layer"/>
  <g id="_1265177515680">
   <path class="fil0" d="M21358 9595c11633,0 21063,9430 21063,21063 0,11633 -9430,21063 -21063,21063 -11633,0 -21063,-9430 -21063,-21063 0,-11633 9430,-21063 21063,-21063zm7939 25998l0 0c-314,514 -991,676 -1504,362l-5573 -3412c-259,131 -552,204 -862,204 -1058,0 -1915,-857 -1915,-1915 0,-651 324,-1225 821,-1572l0 -11629c0,-602 492,-1094 1094,-1094l0 0c602,0 1094,492 1094,1094l0 11629c440,307 745,794 809,1353l5675 3474c514,314 676,991 362,1504zm-7940 -23801l1 0c289,0 525,236 525,525l0 1051c0,289 -236,525 -525,525l-1 0c-289,0 -525,-236 -525,-525l0 -1051c0,-289 236,-525 525,-525zm0 35631l1 0c289,0 525,236 525,525l0 1051c0,289 -236,525 -525,525l-1 0c-289,0 -525,-236 -525,-525l0 -1051c0,-289 236,-525 525,-525zm-18523 -16590l0 0c0,-289 236,-525 525,-525l1051 0c289,0 525,236 525,525l0 0c0,289 -236,525 -525,525l-1051 0c-289,0 -525,-236 -525,-525zm34945 0l0 0c0,-289 236,-525 525,-525l1051 0c289,0 525,236 525,525l0 0c0,289 -236,525 -525,525l-1051 0c-289,0 -525,-236 -525,-525z"/>
   <path class="fil1" d="M52291 37169l2879 0c963,0 1751,788 1751,1751l0 21775 -6381 0 0 -21775c0,-963 788,-1751 1751,-1751z"/>
   <path class="fil2" d="M52291 36875l2879 0c562,0 1075,230 1445,601 370,370 601,882 601,1445l0 22070 -6970 0 0 -22070c0,-563 231,-1075 601,-1445 370,-370 882,-601 1445,-601zm2879 589l-2879 0c-400,0 -764,164 -1028,428 -264,264 -428,628 -428,1028l0 21481 5792 0 0 -21481c0,-400 -164,-764 -428,-1028 -264,-264 -628,-428 -1028,-428z"/>
   <path class="fil3" d="M43226 45467l2879 0c963,0 1751,788 1751,1751l0 13833 -6380 0 0 -13833c0,-963 788,-1751 1751,-1751z"/>
   <path class="fil2" d="M43226 45173l2879 0c561,0 1072,230 1444,601 372,372 602,883 602,1445l0 14127 -6969 0 0 -14127c0,-561 230,-1072 601,-1443 372,-372 884,-602 1445,-602zm2879 589l-2879 0c-401,0 -765,163 -1028,427 -265,264 -428,628 -428,1029l0 13538 5791 0 0 -13538c0,-401 -163,-765 -427,-1028 -264,-265 -629,-428 -1030,-428z"/>
   <path class="fil4" d="M34161 53218l2879 0c963,0 1751,788 1751,1751l0 6041 -6381 0 0 -6041c0,-963 788,-1751 1751,-1751z"/>
   <path class="fil2" d="M34161 52923l2879 0c563,0 1075,230 1445,601 370,372 601,883 601,1445l0 6335 -6970 0 0 -6335c0,-561 230,-1072 601,-1443 372,-372 884,-602 1445,-602zm2879 589l-2879 0c-401,0 -765,163 -1028,427 -265,264 -428,629 -428,1029l0 5746 5792 0 0 -5746c0,-401 -163,-765 -427,-1028 -265,-264 -630,-428 -1030,-428z"/>
   <path class="fil5" d="M32411 60695l24510 0 0 0c0,953 -779,1732 -1732,1732l-21047 0c-953,0 -1732,-779 -1732,-1732l0 0z"/>
   <path class="fil2" d="M32411 60400l24805 0 0 295c0,558 -228,1065 -595,1432 -368,367 -875,595 -1431,595l-21047 0c-556,0 -1063,-228 -1431,-596 -368,-366 -596,-873 -596,-1431l0 -295 295 0zm24185 589l-23860 0c58,278 198,527 392,721 259,261 619,423 1015,423l21047 0c396,0 755,-161 1015,-421 194,-195 333,-444 392,-722z"/>
   <path class="fil6" d="M57382 295c3148,0 5700,2552 5700,5700 0,3148 -2552,5700 -5700,5700 -3148,0 -5700,-2552 -5700,-5700 0,-3148 2552,-5700 5700,-5700zm3650 5210c-19,-95 -89,-171 -182,-201 -144,-46 -287,-91 -431,-137 -71,-259 -174,-506 -304,-733 70,-134 139,-268 208,-402 45,-87 39,-191 -15,-273 -80,-120 -185,-239 -318,-371 -134,-133 -253,-240 -374,-319 -81,-54 -184,-59 -270,-14 -134,69 -268,138 -402,208 -228,-131 -474,-234 -733,-304 -46,-144 -91,-287 -137,-431 -30,-93 -108,-163 -204,-182 -142,-28 -300,-38 -488,-38 -189,0 -348,10 -491,38 -95,19 -171,89 -201,182 -46,144 -91,287 -137,431 -259,71 -506,174 -733,304 -134,-70 -268,-139 -402,-208 -87,-45 -191,-39 -273,15 -120,80 -239,185 -371,318 -133,134 -240,253 -319,374 -54,81 -59,184 -14,270 69,134 138,268 208,402 -131,228 -234,474 -304,733 -144,46 -287,91 -431,137 -93,30 -163,108 -182,204 -28,142 -38,300 -38,488 0,189 10,348 38,491 19,95 89,171 182,201 144,46 287,91 431,137 71,259 174,506 304,733 -70,134 -139,268 -208,402 -45,87 -39,191 15,273 80,120 185,239 318,371 134,133 253,240 374,319 81,54 184,59 270,14 134,-69 268,-138 402,-208 228,131 474,234 733,304 46,144 91,287 137,431 30,93 108,163 204,182 142,28 300,38 488,38 189,0 348,-10 491,-38 95,-19 171,-89 201,-182 46,-144 91,-287 137,-431 259,-71 506,-174 733,-304 134,70 268,139 402,208 87,45 191,39 273,-15 120,-80 239,-185 371,-318 133,-134 240,-253 319,-374 54,-81 59,-184 14,-270 -69,-134 -138,-268 -208,-402 131,-228 234,-474 304,-733 144,-46 287,-91 431,-137 93,-30 163,-108 182,-204 28,-142 38,-300 38,-488 0,-189 -10,-348 -38,-491zm-3650 -1106c882,0 1597,715 1597,1597 0,882 -715,1597 -1597,1597 -882,0 -1597,-715 -1597,-1597 0,-882 715,-1597 1597,-1597z"/>
   <path class="fil2" d="M57382 0c1655,0 3154,671 4239,1756 1085,1085 1756,2583 1756,4239 0,1654 -672,3153 -1756,4238 -1085,1086 -2583,1757 -4239,1757 -1654,0 -3153,-672 -4238,-1756 -1086,-1086 -1757,-2585 -1757,-4239 0,-1655 671,-3154 1756,-4239 1086,-1084 2585,-1756 4239,-1756zm3822 2172c-978,-978 -2330,-1583 -3822,-1583 -1493,0 -2845,605 -3823,1583 -977,979 -1583,2330 -1583,3823 0,1493 605,2845 1583,3823 978,978 2330,1583 3823,1583 1493,0 2844,-605 3822,-1583 978,-978 1583,-2330 1583,-3823 0,-1493 -605,-2844 -1583,-3822z"/>
   <path class="fil2" d="M21358 9300c5898,0 11238,2391 15102,6255 3865,3865 6255,9204 6255,15102 0,5897 -2391,11238 -6255,15102 -3865,3865 -9204,6255 -15102,6255 -5897,0 -11237,-2391 -15102,-6255 -3865,-3865 -6255,-9205 -6255,-15102 0,-5898 2391,-11237 6255,-15102 3865,-3865 9205,-6255 15102,-6255zm14686 6672c-3758,-3758 -8951,-6083 -14686,-6083 -5735,0 -10928,2325 -14686,6083 -3758,3758 -6083,8951 -6083,14686 0,5735 2325,10928 6083,14686 3758,3758 8951,6083 14686,6083 5735,0 10928,-2325 14686,-6083 3758,-3758 6083,-8951 6083,-14686 0,-5735 -2325,-10928 -6083,-14686z"/>
  </g>
 </g>
</svg>
