<?xml version="1.0" encoding="UTF-8"?>
<!DOCTYPE svg PUBLIC "-//W3C//DTD SVG 1.1//EN" "http://www.w3.org/Graphics/SVG/1.1/DTD/svg11.dtd">
<!-- Creator: CorelDRAW 2017 -->
<svg xmlns="http://www.w3.org/2000/svg" xml:space="preserve" width="17.0955mm" height="16.1009mm" version="1.1" style="shape-rendering:geometricPrecision; text-rendering:geometricPrecision; image-rendering:optimizeQuality; fill-rule:evenodd; clip-rule:evenodd"
viewBox="0 0 47771 44992"
 xmlns:xlink="http://www.w3.org/1999/xlink">
 <defs>
  <style type="text/css">
   <![CDATA[
    .fil3 {fill:#FF6600}
    .fil0 {fill:white}
    .fil7 {fill:#FF6600;fill-rule:nonzero}
    .fil6 {fill:white;fill-rule:nonzero}
    .fil4 {fill:url(#id0);fill-rule:nonzero}
    .fil2 {fill:url(#id1);fill-rule:nonzero}
    .fil5 {fill:url(#id2);fill-rule:nonzero}
    .fil1 {fill:url(#id3);fill-rule:nonzero}
   ]]>
  </style>
  <linearGradient id="id0" gradientUnits="userSpaceOnUse" x1="35536" y1="17768" x2="0" y2="17768">
   <stop offset="0" style="stop-opacity:1; stop-color:#BF3300"/>
   <stop offset="1" style="stop-opacity:1; stop-color:#FF6600"/>
  </linearGradient>
  <linearGradient id="id1" gradientUnits="userSpaceOnUse" xlink:href="#id0" x1="25941" y1="39948" x2="31925" y2="39948">
  </linearGradient>
  <linearGradient id="id2" gradientUnits="userSpaceOnUse" xlink:href="#id0" x1="38269" y1="21389" x2="12193" y2="21389">
  </linearGradient>
  <linearGradient id="id3" gradientUnits="userSpaceOnUse" xlink:href="#id0" x1="27271" y1="36268" x2="30279" y2="36268">
  </linearGradient>
 </defs>
 <g id="Warstwa_x0020_1">
  <metadata id="CorelCorpID_0Corel-Layer"/>
  <path class="fil0" d="M25185 31743l18217 0c651,0 1183,532 1183,1183l0 10647c0,651 -532,1183 -1183,1183l-18217 0c-651,0 -1183,-532 -1183,-1183l0 -10647c0,-651 532,-1183 1183,-1183z"/>
  <g id="_1265209060208">
   <path class="fil1" d="M28775 34764c830,0 1504,673 1504,1504 0,831 -673,1504 -1504,1504 -831,0 -1504,-673 -1504,-1504 0,-830 673,-1504 1504,-1504z"/>
   <path class="fil2" d="M30195 38162c960,52 1730,853 1730,1826l0 527c0,671 -549,1219 -1219,1219l-3546 0c-671,0 -1219,-549 -1219,-1219l0 -527c0,-929 701,-1701 1601,-1814 331,322 800,524 1321,524 527,0 1001,-206 1333,-535z"/>
  </g>
  <g id="_1265209063536">
   <path class="fil3" d="M33845 36493l8312 0c195,0 355,160 355,355l0 1c0,195 -160,355 -355,355l-8312 0c-195,0 -355,-160 -355,-355l0 -1c0,-195 160,-355 355,-355z"/>
   <path class="fil3" d="M33845 39296l4929 0c195,0 355,160 355,355l0 1c0,195 -160,355 -355,355l-4929 0c-195,0 -355,-160 -355,-355l0 -1c0,-195 160,-355 355,-355z"/>
  </g>
  <path class="fil4" d="M8953 19997c-1231,-4868 1718,-9813 6586,-11044 4868,-1231 9813,1718 11044,6586 491,1942 317,3895 -378,5621l3810 3815c131,-223 256,-449 375,-678 147,-284 445,-458 765,-448l3061 94c369,11 703,-222 817,-574 141,-433 266,-872 374,-1317 88,-360 -73,-734 -395,-918l-2653 -1523c-277,-159 -440,-464 -416,-783 42,-567 51,-1140 23,-1716 -15,-320 156,-620 438,-771l2693 -1447c326,-175 498,-544 421,-906 -48,-222 -99,-445 -156,-667 -56,-222 -116,-443 -180,-661 -104,-355 -431,-598 -801,-597l-3057 8c-320,1 -613,-182 -752,-471 -250,-520 -530,-1020 -836,-1499 -173,-270 -175,-614 -6,-887l1610 -2602c195,-315 159,-721 -89,-996 -307,-340 -625,-666 -955,-981 -268,-255 -672,-302 -991,-116l-2648 1537c-277,161 -621,149 -886,-31 -473,-322 -965,-615 -1473,-879 -284,-147 -458,-444 -448,-765l94 -3060c11,-370 -222,-703 -573,-817 -433,-141 -872,-266 -1317,-374 -360,-88 -734,74 -918,395l-1523 2654c-159,277 -464,440 -783,416 -567,-42 -1140,-50 -1716,-23 -320,15 -620,-156 -772,-438l-1446 -2693c-175,-326 -544,-498 -906,-421 -448,96 -889,207 -1328,336 -355,104 -598,431 -597,801l7 3057c1,320 -182,613 -471,752 -520,250 -1020,530 -1499,836 -269,173 -614,175 -887,7l-2602 -1610c-315,-195 -721,-159 -995,89 -340,307 -667,625 -981,955 -255,267 -302,672 -116,991l1537 2649c161,276 149,621 -31,886 -322,473 -615,965 -878,1473 -147,284 -445,458 -765,448l-3061 -94c-369,-11 -703,222 -817,573 -141,433 -265,872 -374,1317 -88,360 74,734 395,919l2653 1523c278,160 440,464 416,783 -42,567 -51,1140 -23,1716 15,320 -156,620 -438,772l-2693 1446c-326,175 -498,544 -421,906 95,448 207,889 336,1328 104,355 431,598 801,597l3057 -7c320,-1 613,182 752,471 250,520 530,1020 836,1499 173,270 175,615 7,887l-1610 2601c-195,315 -159,721 89,996 307,339 625,666 955,981 268,255 672,302 991,116l2648 -1537c277,-160 621,-149 886,31 473,322 965,615 1472,878 284,147 458,445 449,765l-94 3061c-11,369 222,703 574,817 433,141 872,266 1317,374 360,87 734,-74 919,-395l1523 -2653c160,-278 464,-440 783,-416 567,42 1140,51 1716,23 320,-15 620,156 772,438l1446 2693c175,326 544,498 906,421 347,-74 691,-158 1033,-252l0 -2339c0,-348 71,-685 200,-995 133,-321 326,-608 563,-845l4 -4 4 -4 3 -4 0 0 4 -4 4 -4 3 -3 1 -1 4 -4 4 -4 3 -3 1 -1 4 -4 4 -4 2 -2 2 -2 4 -4 4 -4 2 -1 2 -2 4 -4 4 -4 1 -1 3 -3 4 -4 4 -4 1 -1 3 -3 4 -4 4 -4 0 0 4 -3 4 -4 4 -4 4 -4 4 -4 4 -3 1 -1 4 -4 4 -4 3 -3 1 -1 4 -3 4 -4 3 -2 2 -1 4 -4 4 -4 2 -2 2 -2 4 -4 4 -4 2 -1 3 -2 4 -4 1 -1 8 -6 4 -3 4 -4 1 -1 4 -3 4 -4 4 -3 4 -3 4 -4 4 -3 1 0 4 -3 4 -3 3 -3 1 -1 4 -3 4 -3 3 -2 1 -1 4 -3 4 -3 3 -2 2 -1 4 -3 4 -3 2 -1 3 -2c81,-120 193,-220 329,-285 275,-132 544,-272 807,-421l-3843 -3847c-5094,1864 -10633,-1098 -11950,-6307z"/>
  <path class="fil5" d="M38269 30409c-1280,-851 -3030,-1069 -4824,-338 -370,-371 -10495,-10509 -10865,-10879 1407,-3452 -702,-6824 -4210,-6824 -1189,0 -2455,398 -3565,1220l3021 1414c935,437 1338,1549 901,2484l-487 1041c-437,934 -1549,1338 -2484,901l-3508 -1641c-541,3892 3038,6488 6771,4966l7568 7578 11682 77z"/>
  <path class="fil6" d="M17768 5797c-172,0 -317,106 -379,250 -119,277 89,576 379,576 267,1 531,9 796,28 500,56 640,-759 58,-824 -285,-20 -568,-29 -854,-30zm-1558 934c517,-65 442,-887 -120,-817 -281,40 -563,89 -841,149 -558,139 -322,931 176,807 260,-56 522,-101 785,-139zm-3759 1240c484,-276 60,-985 -400,-722 -250,138 -492,280 -733,434 -485,346 44,982 445,695 227,-144 453,-277 688,-407zm-3090 2481c333,-333 -187,-977 -624,-540 -188,217 -366,437 -539,665 -328,459 358,919 662,493 160,-212 327,-417 501,-618zm-2030 3400c190,-508 -582,-800 -774,-288 -101,267 -189,538 -271,811 -142,566 670,721 792,231 77,-254 158,-505 253,-754zm-708 3896c0,-172 -106,-318 -250,-379 -277,-118 -576,89 -576,379 0,286 10,569 29,854 65,583 879,442 824,-57 -19,-264 -27,-531 -27,-796zm693 3899c-192,-511 -964,-219 -774,288 97,267 210,533 327,791 258,516 979,112 750,-345 -110,-237 -215,-489 -303,-735zm2018 3407c-437,-437 -957,207 -624,540 183,216 383,425 582,627 385,385 969,-200 584,-584 -185,-185 -372,-384 -542,-583zm3078 2491c-496,-248 -863,458 -395,725 245,134 510,274 766,385 527,198 818,-513 339,-753 -241,-113 -475,-230 -709,-357zm3754 1255c-554,-69 -637,752 -113,817 283,39 563,70 849,91 500,56 640,-759 58,-824 -266,-19 -529,-48 -793,-85zm3960 -136c-558,139 -322,931 176,807 278,-59 557,-130 830,-210 485,-121 337,-934 -235,-791 -253,75 -512,140 -771,195zm8338 -7747c-142,568 670,721 792,232 81,-277 147,-549 212,-830 123,-491 -667,-735 -808,-170 -56,259 -122,515 -196,769zm423 -3936c64,576 879,443 823,-63 -20,-285 -50,-567 -90,-850 -65,-517 -887,-442 -817,120 41,257 65,532 84,792zm-975 -3839c258,516 979,112 750,-345 -115,-255 -246,-521 -384,-766 -276,-484 -985,-60 -722,400 127,229 248,471 356,711zm-2261 -3254c386,386 970,-199 585,-583 -203,-202 -410,-395 -626,-583 -333,-333 -977,187 -540,624 200,174 394,354 581,542zm-3247 -2260c528,198 818,-513 340,-753 -261,-118 -520,-225 -788,-327 -508,-190 -800,582 -288,774 250,94 493,195 737,306z"/>
  <path class="fil0" d="M29532 28419c50,49 79,102 95,161 19,56 10,128 -17,206 -34,78 -83,166 -157,266 -71,97 -170,210 -296,339 -127,129 -238,229 -337,305 -96,72 -182,123 -260,158 -80,32 -149,39 -208,23 -56,-18 -109,-46 -159,-95l-8936 -8484c-81,-68 -135,-139 -167,-220 -29,-78 -33,-168 -6,-271 24,-100 82,-210 175,-334 89,-122 219,-267 389,-439 163,-166 306,-292 429,-380 124,-88 236,-151 335,-177 103,-29 190,-30 268,-2 75,24 150,74 226,148l8627 8798zm904 1938c129,-118 248,-209 361,-274 155,-89 307,-136 463,-137 149,-1 309,50 471,161 106,69 220,155 341,261l-1636 -11z"/>
  <path class="fil7" d="M44349 34497c0,-130 106,-237 237,-237 130,0 237,106 237,237l0 9076c0,390 -160,745 -417,1002 -258,258 -613,418 -1003,418l-18217 0c-390,0 -745,-160 -1002,-417 -258,-257 -418,-612 -418,-1003l0 -10647c0,-391 160,-746 417,-1003 257,-257 613,-417 1003,-417l14552 0c130,0 237,106 237,237 0,130 -106,237 -237,237l-14552 0c-260,0 -497,107 -668,278 -171,171 -278,408 -278,668l0 10647c0,260 107,497 278,668 171,172 408,278 668,278l18217 0c260,0 497,-106 668,-277 172,-173 278,-409 278,-669l0 -9076z"/>
  <path class="fil7" d="M47018 33394c-117,-82 -191,-212 -202,-355 -7,-89 -189,-2064 -2175,-3462 -1989,-1401 -3912,-904 -3993,-882 -254,70 -518,-79 -588,-333 -70,-255 79,-518 333,-588 98,-27 2426,-649 4798,1022 2372,1670 2571,4072 2578,4173 19,263 -179,492 -442,511 -110,8 -220,-23 -310,-86z"/>
  <path class="fil7" d="M45373 33794c-117,-82 -191,-211 -202,-353 -150,-990 -708,-1872 -1539,-2431 -806,-594 -1825,-823 -2808,-630 -257,61 -514,-98 -575,-354 -58,-245 83,-492 323,-567 1258,-267 2571,13 3611,770 1063,724 1769,1866 1942,3140 19,263 -179,492 -442,511 -110,8 -219,-22 -309,-86z"/>
  <path class="fil7" d="M43597 34102c-121,-85 -196,-221 -203,-369 -122,-1015 -1045,-1738 -2059,-1615 -63,8 -126,18 -188,32 -253,76 -519,-68 -595,-321 -75,-249 63,-512 310,-592 1498,-385 3025,517 3410,2015 37,145 63,292 76,441 10,264 -195,486 -459,496 -105,4 -208,-27 -293,-87z"/>
 </g>
</svg>
